Coordinates
version=1
nRows=24
nColumns=22
inDegrees=yes

Units are S.I. units (second, meters, Newtons, ...)
If the header above contains a line with 'inDegrees', this indicates whether rotational values are in degrees (yes) or radians (no).

endheader
time	pelvis_tilt	pelvis_list	pelvis_rotation	pelvis_tx	pelvis_ty	pelvis_tz	hip_flexion_r	hip_adduction_r	hip_rotation_r	knee_angle_r	ankle_angle_r	subtalar_angle_r	hip_flexion_l	hip_adduction_l	hip_rotation_l	knee_angle_l	ankle_angle_l	subtalar_angle_l	lumbar_extension	lumbar_bending	lumbar_rotation
      5.92000000	     -2.26496246	     -0.10212302	    259.01421138	     -0.77071240	      1.00715800	      0.04549067	     24.86733824	     -7.59802388	     -3.71540780	    -38.15921608	      6.75723096	      8.92204321	      0.39332931	      7.28449126	     -7.94275389	    -12.85666353	     12.07326970	    -13.22820277	     -4.56888878	     -3.86550836	     -7.14890960
      5.93000000	     -2.22798350	     -0.16688852	    259.92101359	     -0.77050437	      1.00655698	      0.05243406	     25.19709446	     -7.41986242	     -3.25137248	    -36.28318867	      6.72971409	      9.09160392	     -0.22504583	      7.36976866	     -7.03571676	    -12.68207038	     12.28829594	    -13.19408191	     -4.71796815	     -3.87786591	     -7.33168228
      5.94000000	     -2.18520051	     -0.24941749	    260.78837048	     -0.77036919	      1.00591212	      0.05942471	     25.49478561	     -7.23474830	     -2.80523074	    -34.44711453	      6.65974512	      9.29038503	     -0.85253062	      7.44228703	     -6.16992131	    -12.53674880	     12.51999142	    -13.14387702	     -4.87616232	     -3.90299516	     -7.47972604
      5.95000000	     -2.13870034	     -0.34252644	    261.61502604	     -0.77030997	      1.00521770	      0.06646591	     25.76949952	     -7.03897721	     -2.39342031	    -32.65577045	      6.54919142	      9.52531560	     -1.48202271	      7.49947447	     -5.34950704	    -12.41903513	     12.77851878	    -13.07416210	     -5.03541240	     -3.93961132	     -7.59149875
      5.96000000	     -2.09751692	     -0.46005686	    262.39593046	     -0.77033752	      1.00449877	      0.07355918	     26.00553047	     -6.82249783	     -2.02637862	    -30.91252006	      6.42755207	      9.84037421	     -2.12929742	      7.53416173	     -4.58743943	    -12.32710901	     13.06969677	    -12.97186706	     -5.21500381	     -3.97879314	     -7.65847079
      5.97000000	     -2.05848059	     -0.55699900	    263.16640158	     -0.77040034	      1.00369968	      0.08068530	     26.24863478	     -6.59941246	     -1.76292251	    -29.21721127	      6.22676411	     10.17497458	     -2.73312693	      7.54403101	     -3.85305867	    -12.28282502	     13.38177465	    -12.87703183	     -5.36657430	     -4.01562607	     -7.74127973
      5.98000000	     -2.03280028	     -0.67482742	    263.89686317	     -0.77052832	      1.00287945	      0.08786639	     26.45157496	     -6.34949944	     -1.57238680	    -27.56434863	      6.02454013	     10.61570294	     -3.35189984	      7.52637718	     -3.17835354	    -12.26102418	     13.72283640	    -12.75978957	     -5.53931178	     -4.04007260	     -7.78910198
      5.99000000	     -2.01465169	     -0.78908744	    264.59641460	     -0.77071746	      1.00200190	      0.09509855	     26.64188421	     -6.07812898	     -1.46431102	    -25.95478024	      5.80178486	     11.14055370	     -3.95793900	      7.48461797	     -2.55288597	    -12.26274741	     14.08488955	    -12.63542132	     -5.70472560	     -4.05703280	     -7.82249619
      6.00000000	     -1.99331893	     -0.91520630	    265.24881643	     -0.77098900	      1.00108589	      0.10239869	     26.80791998	     -5.78875689	     -1.40321454	    -24.39330655	      5.60886993	     11.81867702	     -4.58065478	      7.43579803	     -1.97838428	    -12.26164246	     14.46904186	    -12.48484241	     -5.87758416	     -4.08226398	     -7.81389288
      6.01000000	     -1.98454608	     -1.01842088	    265.89097613	     -0.77128400	      1.00009415	      0.10975788	     26.97210015	     -5.47919131	     -1.42647531	    -22.86389504	      5.38944176	     12.51790929	     -5.16731391	      7.35713365	     -1.43916680	    -12.29055270	     14.85841228	    -12.35474951	     -6.02170529	     -4.08792025	     -7.82443476
      6.02000000	     -1.97623981	     -1.11134229	    266.50593556	     -0.77163222	      0.99904262	      0.11718703	     27.12434278	     -5.15279071	     -1.47965889	    -21.36860075	      5.19160337	     13.29185671	     -5.74012132	      7.26614504	     -0.94080812	    -12.33051474	     15.24917888	    -12.22462247	     -6.14813005	     -4.09207095	     -7.82843721
      6.03000000	     -1.98444126	     -1.18216570	    267.11694465	     -0.77200852	      0.99792191	      0.12469412	     27.26627427	     -4.80504857	     -1.57660859	    -19.89956191	      5.01302284	     14.04038885	     -6.27768432	      7.14220943	     -0.47446161	    -12.40193968	     15.64297438	    -12.11792980	     -6.24387767	     -4.07555123	     -7.85225540
      6.04000000	     -1.95806371	     -1.25009753	    267.67909977	     -0.77245155	      0.99673906	      0.13228370	     27.40496434	     -4.47159631	     -1.61089707	    -18.49000535	      4.90149751	     14.94287672	     -6.83123950	      7.05247385	     -0.03176877	    -12.43859357	     16.03769953	    -11.99038986	     -6.32626748	     -4.10223616	     -7.81980678
      6.05000000	     -1.93874062	     -1.28677420	    268.24494183	     -0.77289546	      0.99548004	      0.13995790	     27.54241425	     -4.13690964	     -1.64796573	    -17.11346531	      4.80630120	     15.77532140	     -7.33996853	      6.94362573	      0.38861746	    -12.50652326	     16.42054212	    -11.88494154	     -6.36787690	     -4.11697523	     -7.81427807
      6.06000000	     -1.90680043	     -1.30093346	    268.80001851	     -0.77334761	      0.99415375	      0.14772976	     27.68083055	     -3.81990826	     -1.65189359	    -15.79111150	      4.74461188	     16.56462427	     -7.82637371	      6.84220309	      0.79347354	    -12.58037212	     16.78527444	    -11.78298688	     -6.37629251	     -4.14518458	     -7.81175630
      6.07000000	     -1.85954253	     -1.29277649	    269.34904237	     -0.77378404	      0.99276938	      0.15561076	     27.82298157	     -3.53089298	     -1.62946653	    -14.53687665	      4.70904983	     17.27678999	     -8.29362903	      6.75288852	      1.18888070	    -12.65661632	     17.12419945	    -11.67845642	     -6.35218712	     -4.18844823	     -7.81377667
      6.08000000	     -1.80836111	     -1.26154233	    269.90595428	     -0.77417703	      0.99134140	      0.16361704	     27.96777821	     -3.26853900	     -1.62186610	    -13.35876794	      4.68555665	     17.81847779	     -8.73851347	      6.66224560	      1.58511910	    -12.74404904	     17.43108461	    -11.58156518	     -6.29464678	     -4.23253695	     -7.83888048
      6.09000000	     -1.72390407	     -1.22340809	    270.44573845	     -0.77453641	      0.98989514	      0.17175484	     28.11617623	     -3.05451493	     -1.57376381	    -12.29392147	      4.70915295	     18.37057582	     -9.19857488	      6.60661884	      1.98312965	    -12.80304371	     17.71207358	    -11.44719773	     -6.22519329	     -4.30986818	     -7.83901565
      6.10000000	     -1.63639162	     -1.16242591	    271.00628122	     -0.77481547	      0.98843687	      0.18003310	     28.27237967	     -2.87649631	     -1.57448021	    -11.33246186	      4.72044507	     18.75992418	     -9.63532485	      6.54611857	      2.39356124	    -12.87961131	     17.93583543	    -11.31816275	     -6.12458537	     -4.38441111	     -7.88077186
      6.11000000	     -1.52806279	     -1.08994030	    271.55223066	     -0.77506510	      0.98698734	      0.18844455	     28.43624882	     -2.73572535	     -1.56351934	    -10.49424309	      4.74831466	     19.15012793	    -10.07729103	      6.50460103	      2.80481545	    -12.93898288	     18.12890579	    -11.15419011	     -6.01025331	     -4.48034652	     -7.90464675
      6.12000000	     -1.41409161	     -0.99966169	    272.11549965	     -0.77522244	      0.98556139	      0.19698530	     28.60883909	     -2.63483289	     -1.58256278	     -9.78201344	      4.77097813	     19.45447315	    -10.50467976	      6.46088338	      3.23430573	    -13.00671708	     18.26271890	    -10.97901847	     -5.87716197	     -4.57456278	     -7.95585068
      6.13000000	     -1.29474464	     -0.89135707	    272.69912381	     -0.77527353	      0.98417293	      0.20563510	     28.79082912	     -2.57606900	     -1.62044338	     -9.19893286	      4.79306660	     19.61980652	    -10.91138175	      6.41450355	      3.68610057	    -13.09161113	     18.32651505	    -10.80806492	     -5.72974593	     -4.66668197	     -8.03258882
      6.14000000	     -1.18011134	     -0.77366473	    273.29373850	     -0.77521907	      0.98284583	      0.21440035	     28.97403136	     -2.54597377	     -1.66362597	     -8.75070384	      4.84882059	     19.65919976	    -11.31245470	      6.35607658	      4.15545728	    -13.17951946	     18.35657950	    -10.59278986	     -5.57593903	     -4.74244185	     -8.11414158
      6.15000000	     -1.07497447	     -0.64739894	    273.92019889	     -0.77501106	      0.98159595	      0.22326256	     29.15240884	     -2.54836603	     -1.72527022	     -8.42891116	      4.93119621	     19.42740057	    -11.69820513	      6.27846691	      4.66184536	    -13.28845023	     18.33916989	    -10.30546016	     -5.41943653	     -4.79338053	     -8.22277211
